<?xml version="1.0" encoding="utf-8"?>
<!-- Generator: Adobe Illustrator 19.2.1, SVG Export Plug-In . SVG Version: 6.00 Build 0)  -->
<svg version="1.1" id="Layer_1" xmlns="http://www.w3.org/2000/svg" xmlns:xlink="http://www.w3.org/1999/xlink" x="0px" y="0px"
	 viewBox="0 0 168.3 32" style="enable-background:new 0 0 168.3 32;" xml:space="preserve">
<style type="text/css">
	.st0{fill:#FF0000;}
	.st1{fill:#C1272D;}
</style>
<g id="Layer_2">
</g>
<g>
	<path class="st0" d="M8.9,1.9V0h4v12.8h-4v-0.6c0-2.6-0.5-3.9-1.6-3.9C6.6,8.3,6.2,8.7,6,9.6s-0.2,3.3-0.2,7.3
		c0,4.4,0.5,6.6,1.6,6.6c1,0,1.5-1.2,1.5-3.7v-1.4v-1.1h4.4c0.2,1.7,0.2,3.4,0.2,5.2c0,6.7-2,10.1-6.1,10.1c-2.8,0-4.5-1-5.3-2.9
		s-1.1-6.4-1.1-13.3c0-6.8,0.3-11.2,1-13.5s1.9-3.3,3.9-3.3C7.2-0.5,8.3,0.3,8.9,1.9z"/>
	<path class="st0" d="M29.9,0v8.2h-1.6v15.3h1.6V32h-6.8v-8.6h0.8v-6.2H21v6.2h0.8V32H15v-8.6h1.5V8.2H15V0h6.8v8.2H21v5.7h2.8V8.2
		h-0.8V0H29.9z"/>
	<path class="st0" d="M46.4,23.5V32h-7.8v-8.6h1.7l-0.5-4.3h-3.5l-0.5,4.3h1.8V32h-6.5v-8.6h1.5L35.8,0h5.9L45,23.5H46.4z
		 M39.4,15.8L38.1,6l-1.3,9.8H39.4z"/>
	<path class="st0" d="M64.2,0v8.2h-1.6V32h-4.9L52.3,6.8v16.7h1.8V32h-6.5v-8.6h1.6V8.2h-1.6V0h7.1l4.8,22.4V8.2h-1.9V0H64.2z"/>
	<path class="st0" d="M65.9,19.9v-7.1c0-5.4,0.4-8.9,1.2-10.7s2.5-2.6,5.1-2.6c2.4,0,4,0.9,4.9,2.7s1.2,5.3,1.2,10.6v7.1
		c0,4.9-0.4,8.2-1.3,10s-2.5,2.7-4.9,2.7c-2.5,0-4.1-0.9-4.9-2.6S65.9,24.9,65.9,19.9z M70.6,12.9v6c0,3.1,0.5,4.7,1.5,4.7
		c1,0,1.5-1.6,1.5-4.7v-6.1l0-1.4l0-1c-0.1-1.3-0.5-2-1.4-2C71.1,8.3,70.6,9.8,70.6,12.9z"/>
	<path class="st1" d="M79.4,0h3.7v40h-3.7V0z"/>
	<path d="M100.1,20.1c0.2,1.8,0.3,3.3,0.3,4.6c0,5-1.2,7.6-3.6,7.6c-2.3,0-3.4-2.6-3.4-7.9l0-2.1l0-2.1c0-1.9-0.9-2.9-2.8-2.9
		c-0.1,0-0.2,0-0.4,0v6.2h1.7V32h-7.8v-8.6h1.6V8.2h-1.6V0h7.3c2.6,0,4.4,0.6,5.3,1.7S98,5.1,98,8.5c0,4.1-1.2,6.4-3.7,7
		c-0.1,0-0.3,0.1-0.5,0.1c2.1,0.4,3.2,1.3,3.4,2.9l0.1,2.2l0.1,1.8c0,0.9,0.3,1.3,0.8,1.3c0.6,0,1-1.1,1-3.2v-0.5H100.1z M90.1,14.1
		h0.5c2,0,3-0.9,3-2.8c0-2.1-1-3.2-2.9-3.2c-0.1,0-0.3,0-0.6,0V14.1z"/>
	<path d="M114.2,0v12.8h-3.7V8.2h-3.1v5.7h3.9v3.3h-3.9v6.2h3.1v-4.7h4V32h-13.2v-8.6h1.5V8.2h-1.5V0H114.2z"/>
	<path d="M124.5,1.9V0h4v12.8h-4v-0.6c0-2.6-0.5-3.9-1.6-3.9c-0.7,0-1.2,0.4-1.3,1.3s-0.2,3.3-0.2,7.3c0,4.4,0.5,6.6,1.6,6.6
		c1,0,1.5-1.2,1.5-3.7v-1.4v-1.1h4.4c0.2,1.7,0.2,3.4,0.2,5.2c0,6.7-2,10.1-6.1,10.1c-2.8,0-4.5-1-5.3-2.9s-1.1-6.4-1.1-13.3
		c0-6.8,0.3-11.2,1-13.5s1.9-3.3,3.9-3.3C122.8-0.5,123.8,0.3,124.5,1.9z"/>
	<path d="M138.3,0v8.2h-1.7v15.3h1.7V32h-7.8v-8.6h1.6V8.2h-1.6V0H138.3z"/>
	<path d="M147.9,23.5V32h-7.8v-8.6h1.5V8.2h-1.5V0h6.4c2.8,0,4.6,0.7,5.5,2s1.4,3.9,1.4,7.8c0,3.4-0.4,5.7-1.2,6.8s-2.5,1.7-5,1.7
		h-1v5.2H147.9z M146.2,8.2v6.5h0.3h0.6c1.3,0,2-1,2-3.1c0-2.3-0.8-3.4-2.3-3.4H146.2z"/>
	<path d="M167.7,0v12.8H164V8.2h-3.1v5.7h3.9v3.3h-3.9v6.2h3.1v-4.7h4V32h-13.2v-8.6h1.5V8.2h-1.5V0H167.7z"/>
</g>
</svg>
